#!OML:ASF X:\für Bonn\!DataBase\2005_08_10_Bjorn_Final\c3d\bjorn.ASF
:FULLY-SPECIFIED
:DEGREES
232
root 1.08583 18.3361 -0.78601 553.392 84.5135 -164.357
lowerback -0.531559 2.96962 -5.27497
upperback 11.5247 5.7702 -5.22141
thorax 12.9314 2.91443 -2.04657
lowerneck 7.54924 -5.06722 1.04015
upperneck 14.7345 -7.08285 10.8803
head 3.51765 -2.79084 3.1173
rclavicle -4.37326e-014 3.18055e-015
rhumerus -29.0346 -22.1028 -78.1629
rradius 29.5677
rwrist 9.59928
rhand -9.36337 16.6651
rfingers 7.12502
rthumb 16.5966 -12.6452
lclavicle -4.37326e-014 3.18055e-015
lhumerus -1.98012 7.35502 66.323
lradius 51.0542
lwrist -11.8725
lhand -33.802 -15.4058
lfingers 7.12502
lthumb -6.98839 14.4589
rfemur -31.7676 -11.9164 12.2775
rtibia 32.898
rfoot 3.43952 6.97391
rtoes -17.7317
lfemur 2.95719 -6.11459 -15.3657
ltibia 34.3928
lfoot -26.1873 -5.131
ltoes -11.7739
233
root 1.16193 18.3435 -0.746504 551.572 84.4827 -166.459
lowerback -0.528391 2.90886 -5.22065
upperback 11.5135 5.67629 -5.20733
thorax 12.9167 2.87256 -2.07195
lowerneck 7.47253 -5.03227 1.11738
upperneck 14.5707 -7.01697 10.7074
head 3.46951 -2.77092 3.04987
rclavicle -2.22639e-014 -5.725e-014
rhumerus -28.9198 -22.171 -78.1559
rradius 29.5011
rwrist 9.8461
rhand -9.33959 16.6872
rfingers 7.12502
rthumb 16.6195 -12.6212
lclavicle -2.22639e-014 -5.725e-014
lhumerus -2.1571 7.38605 66.2894
lradius 50.8924
lwrist -11.9588
lhand -33.7002 -15.5427
lfingers 7.12502
lthumb -6.89019 14.3252
rfemur -31.9468 -11.8732 12.2101
rtibia 33.1928
rfoot 3.15326 6.89433
rtoes -17.9489
lfemur 3.15988 -6.04127 -15.3337
ltibia 33.8295
lfoot -25.9632 -5.44204
ltoes -11.7881
234
root 1.23825 18.3488 -0.705825 549.778 84.4437 -168.544
lowerback -0.500379 2.84248 -5.18302
upperback 11.4816 5.56568 -5.1716
thorax 12.8565 2.81884 -2.06806
lowerneck 7.58864 -4.99557 1.26253
upperneck 14.0386 -6.86175 10.2357
head 3.69018 -2.75486 3.19769
rclavicle 3.18055e-015 -6.36111e-015
rhumerus -28.8486 -22.0595 -78.1433
rradius 29.4888
rwrist 9.93239
rhand -9.32515 16.6455
rfingers 7.12502
rthumb 16.6334 -12.6617
lclavicle 3.18055e-015 -6.36111e-015
lhumerus -2.41879 7.39738 66.2642
lradius 50.783
lwrist -12.0847
lhand -33.6239 -15.6952
lfingers 7.12502
lthumb -6.8165 14.1751
rfemur -32.1553 -11.8383 12.1563
rtibia 33.5012
rfoot 2.88745 6.83035
rtoes -18.1564
lfemur 3.35222 -5.9981 -15.3008
ltibia 33.2661
lfoot -25.7452 -5.79955
ltoes -11.5413
235
root 1.3151 18.3546 -0.664598 548.237 84.4088 -170.363
lowerback -0.471263 2.78036 -5.11579
upperback 11.477 5.46211 -5.12365
thorax 12.8295 2.77091 -2.06597
lowerneck 7.54167 -4.93207 1.23387
upperneck 13.8385 -6.7688 10.1425
head 3.61638 -2.72604 3.16634
rclavicle -2.22639e-014 6.04305e-014
rhumerus -28.7055 -22.0319 -78.1286
rradius 29.4128
rwrist 10.138
rhand -9.3038 16.6667
rfingers 7.12502
rthumb 16.654 -12.6389
lclavicle -2.22639e-014 6.04305e-014
lhumerus -2.61143 7.46394 66.2849
lradius 50.6345
lwrist -12.231
lhand -33.4982 -15.8528
lfingers 7.12502
lthumb -6.69518 14.0214
rfemur -32.3639 -11.7708 12.1177
rtibia 33.8185
rfoot 2.63434 6.79433
rtoes -18.2378
lfemur 3.56888 -5.92316 -15.2416
ltibia 32.6962
lfoot -25.5378 -6.03862
ltoes -11.8646
236
root 1.39194 18.3606 -0.621852 546.487 84.3467 -172.415
lowerback -0.446162 2.70392 -5.05573
upperback 11.4692 5.3432 -5.09762
thorax 12.8034 2.71679 -2.08535
lowerneck 7.45223 -4.86319 1.24578
upperneck 13.6555 -6.66966 10.0355
head 3.55402 -2.69043 3.12233
rclavicle -3.33958e-014 8.11041e-014
rhumerus -28.5645 -21.888 -78.1854
rradius 29.3799
rwrist 10.2122
rhand -9.32174 16.6817
rfingers 7.12502
rthumb 16.6367 -12.6252
lclavicle -3.33958e-014 8.11041e-014
lhumerus -2.81487 7.47081 66.2667
lradius 50.506
lwrist -12.3777
lhand -33.4453 -16.0651
lfingers 7.12502
lthumb -6.6441 13.8106
rfemur -32.5997 -11.7103 12.0557
rtibia 34.1497
rfoot 2.39499 6.74924
rtoes -18.1763
lfemur 3.76188 -5.87081 -15.1944
ltibia 32.1143
lfoot -25.299 -6.3752
ltoes -11.8295
237
root 1.46931 18.3668 -0.578578 545.004 84.2897 -174.196
lowerback -0.45141 2.62383 -4.97193
upperback 11.5079 5.22634 -5.05443
thorax 12.8518 2.66471 -2.0968
lowerneck 7.27287 -4.79619 1.22356
upperneck 13.4482 -6.58375 9.93634
head 3.50208 -2.66324 3.08521
rclavicle -2.14687e-014 9.54166e-015
rhumerus -28.3028 -21.7704 -78.2674
rradius 29.3236
rwrist 10.3266
rhand -9.2826 16.673
rfingers 7.12502
rthumb 16.6744 -12.6308
lclavicle -2.14687e-014 9.54166e-015
lhumerus -2.92815 7.48452 66.2644
lradius 50.3868
lwrist -12.4238
lhand -33.4163 -16.2194
lfingers 7.12502
lthumb -6.61607 13.6572
rfemur -32.8429 -11.6863 12.0399
rtibia 34.4838
rfoot 2.17747 6.74748
rtoes -17.916
lfemur 3.95861 -5.84075 -15.1282
ltibia 31.5267
lfoot -25.0398 -6.74766
ltoes -11.6453
238
root 1.54764 18.3731 -0.534279 543.53 84.2159 -175.958
lowerback -0.423367 2.55448 -4.86646
upperback 11.524 5.11869 -5.0296
thorax 12.8562 2.62151 -2.14115
lowerneck 7.14205 -4.75072 1.2845
upperneck 13.2842 -6.5142 9.7802
head 3.45194 -2.6394 3.01444
rclavicle 4.53229e-014 -5.725e-014
rhumerus -28.1149 -21.6137 -78.3685
rradius 29.2768
rwrist 10.3662
rhand -9.27246 16.7295
rfingers 7.12502
rthumb 16.6842 -12.5735
lclavicle 4.53229e-014 -5.725e-014
lhumerus -3.09259 7.42138 66.2533
lradius 50.3368
lwrist -12.4591
lhand -33.4016 -16.2585
lfingers 7.12502
lthumb -6.60195 13.6186
rfemur -33.0737 -11.6129 12.0023
rtibia 34.8304
rfoot 1.91324 6.7099
rtoes -17.3472
lfemur 4.18081 -5.79399 -15.0552
ltibia 30.922
lfoot -24.7692 -7.08484
ltoes -11.689
239
root 1.62499 18.3791 -0.489261 542.126 84.1266 -177.672
lowerback -0.389529 2.46607 -4.77546
upperback 11.5312 4.98043 -4.98579
thorax 12.842 2.55996 -2.1606
lowerneck 6.99833 -4.68516 1.27413
upperneck 13.1646 -6.42533 9.62751
head 3.42225 -2.60686 2.95867
rclavicle 3.18055e-015 7.95139e-015
rhumerus -27.9002 -21.3926 -78.4553
rradius 29.2241
rwrist 10.2728
rhand -9.17943 16.7712
rfingers 7.12502
rthumb 16.7737 -12.5243
lclavicle 3.18055e-015 7.95139e-015
lhumerus -3.28513 7.34574 66.2339
lradius 50.285
lwrist -12.3886
lhand -33.416 -16.3569
lfingers 7.12502
lthumb -6.61582 13.5198
rfemur -33.3416 -11.5573 11.9819
rtibia 35.1946
rfoot 1.63094 6.69582
rtoes -16.8597
lfemur 4.38465 -5.76704 -14.9777
ltibia 30.2939
lfoot -24.5033 -7.36863
ltoes -11.8051
240
root 1.70426 18.3857 -0.443068 540.745 84.0224 -179.341
lowerback -0.329701 2.38134 -4.68848
upperback 11.542 4.84512 -4.93329
thorax 12.8144 2.49929 -2.16913
lowerneck 6.93663 -4.61326 1.21259
upperneck 12.9833 -6.32691 9.55407
head 3.36178 -2.57426 2.94128
rclavicle 3.4191e-014 1.11319e-014
rhumerus -27.7135 -21.1271 -78.529
rradius 29.2082
rwrist 10.1248
rhand -9.04214 16.7896
rfingers 7.12502
rthumb 16.9059 -12.4946
lclavicle 3.4191e-014 1.11319e-014
lhumerus -3.48613 7.25529 66.2469
lradius 50.2507
lwrist -12.3265
lhand -33.4882 -16.3392
lfingers 7.12502
lthumb -6.6855 13.5353
rfemur -33.5872 -11.5455 11.9647
rtibia 35.5764
rfoot 1.34648 6.71755
rtoes -16.4278
lfemur 4.62936 -5.71477 -14.8896
ltibia 29.6289
lfoot -24.1886 -7.7277
ltoes -11.7424
241
root 1.78422 18.396 -0.397582 539.441 83.9086 -180.964
lowerback -0.291256 2.30348 -4.54304
upperback 11.5518 4.72143 -4.91024
thorax 12.8065 2.4527 -2.23972
lowerneck 6.80231 -4.55909 1.19757
upperneck 12.8689 -6.25768 9.48362
head 3.3383 -2.54811 2.91583
rclavicle -4.13472e-014 -2.06736e-014
rhumerus -27.5305 -20.9347 -78.6255
rradius 29.1938
rwrist 9.97788
rhand -8.9048 16.8863
rfingers 7.12502
rthumb 17.0381 -12.3865
lclavicle -4.13472e-014 -2.06736e-014
lhumerus -3.64855 7.09139 66.2203
lradius 50.2369
lwrist -12.1885
lhand -33.5432 -16.412
lfingers 7.12502
lthumb -6.73861 13.4608
rfemur -33.8819 -11.4912 11.9302
rtibia 35.9853
rfoot 1.04104 6.68785
rtoes -16.1373
lfemur 4.84871 -5.6878 -14.8099
ltibia 28.9421
lfoot -23.8617 -8.0492
ltoes -11.8267
242
root 1.86587 18.405 -0.350912 538.189 83.7722 -182.493
lowerback -0.216213 2.21338 -4.42061
upperback 11.5719 4.57774 -4.8596
thorax 12.7827 2.39239 -2.27117
lowerneck 6.72576 -4.49275 1.13141
upperneck 12.7179 -6.16858 9.40258
head 3.29203 -2.51828 2.89682
rclavicle 1.90833e-014 -3.65764e-014
rhumerus -27.3675 -20.6331 -78.7098
rradius 29.2147
rwrist 9.7625
rhand -8.8266 16.9795
rfingers 7.12502
rthumb 17.1133 -12.2868
lclavicle 1.90833e-014 -3.65764e-014
lhumerus -3.83274 7.0224 66.2565
lradius 50.1929
lwrist -12.1447
lhand -33.5698 -16.4563
lfingers 7.12502
lthumb -6.76425 13.4157
rfemur -34.1227 -11.4659 11.8903
rtibia 36.4094
rfoot 0.747926 6.65626
rtoes -15.5764
lfemur 5.13435 -5.69304 -14.7321
ltibia 28.2295
lfoot -23.5286 -8.36112
ltoes -11.864
243
root 1.94786 18.4136 -0.303652 536.993 83.6526 -183.987
lowerback -0.171693 2.13086 -4.28807
upperback 11.593 4.44704 -4.81391
thorax 12.7803 2.33933 -2.31077
lowerneck 6.62073 -4.42102 1.03322
upperneck 12.6051 -6.08036 9.36799
head 3.26802 -2.48599 2.89997
rclavicle 2.22639e-014 6.99722e-014
rhumerus -27.2177 -20.3641 -78.8024
rradius 29.2732
rwrist 9.56039
rhand -8.73025 17.0321
rfingers 7.12502
rthumb 17.2061 -12.2261
lclavicle 2.22639e-014 6.99722e-014
lhumerus -3.97861 6.92594 66.2362
lradius 50.124
lwrist -12.0165
lhand -33.5597 -16.5525
lfingers 7.12502
lthumb -6.75453 13.3197
rfemur -34.4093 -11.4482 11.8662
rtibia 36.8575
rfoot 0.434964 6.66748
rtoes -15.3691
lfemur 5.40178 -5.64913 -14.6438
ltibia 27.5113
lfoot -23.1594 -8.66685
ltoes -11.9351
